<?xml version="1.0" encoding="utf-8"?>
<!-- Generator: Adobe Illustrator 24.3.0, SVG Export Plug-In . SVG Version: 6.00 Build 0)  -->
<svg version="1.1" id="Layer_1" xmlns="http://www.w3.org/2000/svg" xmlns:xlink="http://www.w3.org/1999/xlink" x="0px" y="0px"
	 viewBox="0 0 48 48" style="enable-background:new 0 0 48 48;" xml:space="preserve">
<style type="text/css">
	.st0 {
			fill: rgba(255, 255, 255, 0.25);
		}
</style>
<path class="st0" d="M42.8,42.7L42.8,42.7l-0.5-0.3c-0.9-0.6-1.6-1.4-2.1-2.3c-0.9-1.8-1.1-3.9-0.5-5.9c0.3-1.5,1.1-2.9,2.1-4.1
	c0.5-0.4,0.9-0.9,1.3-1.4c0.9-1,1.2-2.3,1-3.6c-0.3-1-1-1.7-1.9-2.1c-0.8-0.3-1.6-0.3-2.4,0h-0.1c2.6-8.7-2.4-17.9-11.1-20.5
	S10.6,4.6,8,13.4c-0.5,1.6-0.7,3.2-0.7,4.8c0,1.5,0.2,3,0.6,4.5c-0.8-0.5-1.8-0.6-2.7-0.2c-1.4,0.8-1.3,3.3-1.3,4.4
	c0.2,7.1,6.6,12.5,7.4,13.2c3.2,2.5,6.8,4.3,10.8,5.2c4.4,1.3,9,1.5,13.5,0.7c2.7-0.6,5.2-1.6,7.6-2.9h-0.1L42.8,42.7z M21,14.5
	c-0.9,2.7-3.2,4.3-5.2,3.7s-2.9-3.3-2.1-6s3.2-4.4,5.2-3.7S21.8,11.8,21,14.5z M31.3,18.2c-2,0.6-4.3-1-5.2-3.7s0.1-5.4,2.1-6
	s4.3,1,5.2,3.7S33.3,17.5,31.3,18.2L31.3,18.2z"/>
</svg>
