<?xml version="1.0" encoding="utf-8"?>
<!-- Generator: Adobe Illustrator 24.3.0, SVG Export Plug-In . SVG Version: 6.00 Build 0)  -->
<svg version="1.1" id="Layer_1" xmlns="http://www.w3.org/2000/svg" xmlns:xlink="http://www.w3.org/1999/xlink" x="0px" y="0px"
	 viewBox="0 0 187.75 48" style="enable-background:new 0 0 187.75 48;" xml:space="preserve">
<style type="text/css">
	.st0{fill-rule:evenodd;clip-rule:evenodd;fill:#FD6D52;}
	.st1{fill:#D8D8D8;}
</style>
<g>
	<path class="st0" d="M42.27,38.59c3.27-4.07,5.24-9.24,5.24-14.84V0c-1.86,0-3.72,0-5.58,0c-3.38,0-6.76,0-10.14,0
		c0,11.43,0,22.86,0,34.29c3.18-2.43,5.24-6.26,5.24-10.54V10.48V5.24h5.24v18.51c0,4.98-2,9.53-5.24,12.87
		c-1.51,1.55-3.28,2.84-5.24,3.8c-1.63,0.79-3.39,1.35-5.24,1.64c0-14.02,0-28.04,0-42.06h-2.79c-0.94,0-1.87,0.06-2.79,0.16
		c-1.82,0.22-3.57,0.64-5.24,1.24c-1.86,0.68-3.62,1.58-5.24,2.68C8.5,5.42,6.74,7.05,5.24,8.91C1.97,12.99,0,18.15,0,23.75v18.95
		c5.24,0,10.48,0,15.72,0c0-11.43,0-18.06,0-29.49c-3.18,2.43-5.24,6.26-5.24,10.54v13.27v0.44H5.24V23.75c0-4.98,2-9.53,5.24-12.87
		c1.51-1.55,3.28-2.84,5.24-3.8c1.63-0.79,3.39-1.35,5.24-1.64c0,12.27,0,24.54,0,36.81v5.24h2.79c0.94,0,1.88-0.06,2.79-0.16
		c1.82-0.21,3.57-0.64,5.24-1.24c1.86-0.68,3.62-1.58,5.24-2.68C39.01,42.09,40.77,40.45,42.27,38.59"/>
	<g>
		<path class="st1" d="M66.1,12.66v18.8h-5.17V0.06l18.41,19.68V0.85h5.17v31.49L66.1,12.66z"/>
		<path class="st1" d="M98.18,0.85h19.08v5.17h-13.91v7.55h12.32v5.17h-12.32v7.55h13.91v5.17H98.18V0.85z"/>
		<path class="st1" d="M145.97,31.46l-6.28-11.33h-4.57v11.33h-5.17V0.85h11.41c5.29,0,9.62,3.9,9.62,9.62c0,4.37-2.46,7.67-6,9.02
			l6.96,11.97H145.97z M135.11,14.96h5.84c2.86,0,4.85-1.59,4.85-4.49c0-2.86-1.99-4.45-4.85-4.45h-5.84V14.96z"/>
		<path class="st1" d="M163.54,0.85h8.91c8.47,0,15.31,6.84,15.31,15.31s-6.84,15.31-15.31,15.31h-8.91V0.85z M172.44,26.29
			c5.68,0,10.14-4.49,10.14-10.14c0-5.61-4.45-10.14-10.14-10.14h-3.74v20.28H172.44z"/>
	</g>
	<g>
		<path class="st1" d="M61.85,37.92h6.11v1.65h-4.45V42h3.94v1.65h-3.94v4.07h-1.65V37.92z"/>
		<path class="st1" d="M75.44,37.92h1.65v9.8h-1.65V37.92z"/>
		<path class="st1" d="M86.82,41.7v6.02h-1.65V37.67l5.89,6.3v-6.04h1.65V48L86.82,41.7z"/>
		<path class="st1" d="M106.19,45.94h-3.72l-0.72,1.78h-1.87l4.45-10.05l4.45,10.05h-1.87L106.19,45.94z M105.55,44.39l-1.22-2.98
			l-1.22,2.98H105.55z"/>
		<path class="st1" d="M117.6,41.7v6.02h-1.65V37.67l5.89,6.3v-6.04h1.65V48L117.6,41.7z"/>
		<path class="st1" d="M131.23,42.81c0-2.81,2.28-5.01,5.09-5.01c0.83,0,1.55,0.19,2.28,0.57v2.05c-0.73-0.65-1.39-0.94-2.3-0.94
			c-1.88,0-3.38,1.46-3.38,3.35c0,1.86,1.46,3.35,3.37,3.35c0.98,0,1.62-0.31,2.32-0.95v2.06c-0.73,0.38-1.45,0.57-2.28,0.57
			C133.48,47.85,131.23,45.61,131.23,42.81z"/>
		<path class="st1" d="M146.39,37.92h6.11v1.65h-4.45V42h3.94v1.65h-3.94v2.42h4.45v1.65h-6.11V37.92z"/>
	</g>
</g>
</svg>
